<svg aria-hidden="true" style="width:0;height:0;position:absolute;overflow:hidden" xmlns="http://www.w3.org/2000/svg"><defs><symbol id="sun" viewBox="0 0 28 28"><path d="M23 14c0-4.969-4.031-9-9-9s-9 4.031-9 9 4.031 9 9 9 9-4.031 9-9zm4.312 4.328a.482.482 0 0 1-.313.313l-4.562 1.5v4.781a.517.517 0 0 1-.203.406.475.475 0 0 1-.453.063l-4.562-1.469-2.812 3.875c-.094.125-.25.203-.406.203s-.313-.078-.406-.203l-2.812-3.875-4.562 1.469a.472.472 0 0 1-.453-.063.518.518 0 0 1-.203-.406v-4.781l-4.562-1.5c-.141-.047-.266-.156-.313-.313s-.031-.328.063-.453L3.565 14 .753 10.125C.659 9.984.644 9.828.69 9.672s.172-.266.313-.313l4.562-1.5V3.078c0-.156.078-.313.203-.406a.475.475 0 0 1 .453-.063l4.562 1.469L13.595.203c.187-.25.625-.25.812 0l2.812 3.875 4.562-1.469a.472.472 0 0 1 .453.063c.125.094.203.25.203.406v4.781l4.562 1.5c.141.047.266.156.313.313s.031.313-.063.453L24.437 14l2.812 3.875a.514.514 0 0 1 .063.453z"/></symbol><symbol id="moon" viewBox="0 0 23 28"><path d="M19.719 20.359c-.562.094-1.141.141-1.719.141-5.797 0-10.5-4.703-10.5-10.5 0-1.984.578-3.922 1.625-5.578A9.952 9.952 0 0 0 2 14c0 5.516 4.484 10 10 10 3.016 0 5.844-1.375 7.719-3.641zm3.172-1.328A12.035 12.035 0 0 1 12 26C5.391 26 0 20.609 0 14A11.95 11.95 0 0 1 11.547 2.016a.976.976 0 0 1 .953.609c.172.391.063.844-.234 1.125A8.372 8.372 0 0 0 9.5 10c0 4.688 3.813 8.5 8.5 8.5a8.352 8.352 0 0 0 3.563-.797 1 1 0 0 1 1.328 1.328z"/></symbol><symbol id="film" viewBox="0 0 24 24"><path stroke-linejoin="round" stroke-linecap="round" stroke-width="2" d="M19.82 2H4.18A2.18 2.18 0 0 0 2 4.18v15.64A2.18 2.18 0 0 0 4.18 22h15.64A2.18 2.18 0 0 0 22 19.82V4.18A2.18 2.18 0 0 0 19.82 2zM7 2v20M17 2v20M2 12h20M2 7h5M2 17h5m10 0h5M17 7h5"/></symbol><symbol id="button-up" viewBox="0 0 32 32"><path d="M16 1 1 16h9v16h12V16h9z"/></symbol><symbol id="search" viewBox="0 0 32 32"><path d="m31.008 27.231-7.58-6.447c-.784-.705-1.622-1.029-2.299-.998a11.954 11.954 0 0 0 2.87-7.787c0-6.627-5.373-12-12-12s-12 5.373-12 12 5.373 12 12 12c2.972 0 5.691-1.081 7.787-2.87-.031.677.293 1.515.998 2.299l6.447 7.58c1.104 1.226 2.907 1.33 4.007.23s.997-2.903-.23-4.007zM12 20a8 8 0 1 1 0-16 8 8 0 0 1 0 16z"/></symbol></defs></svg>